<?xml version="1.0" standalone="no"?>
<!DOCTYPE svg PUBLIC "-//W3C//DTD SVG 20010904//EN"
 "http://www.w3.org/TR/2001/REC-SVG-20010904/DTD/svg10.dtd">
<svg version="1.0" xmlns="http://www.w3.org/2000/svg"
 width="667.000000pt" height="667.000000pt" viewBox="0 0 667.000000 667.000000"
 preserveAspectRatio="xMidYMid meet">

<g transform="translate(0.000000,667.000000) scale(0.100000,-0.100000)"
fill="#000000" stroke="none">
<path d="M3483 5988 c-24 -31 -35 -122 -29 -238 3 -65 9 -131 12 -146 4 -21
-1 -37 -16 -57 -25 -32 -40 -34 -70 -9 -19 15 -22 29 -25 113 -8 239 -23 321
-61 336 -46 18 -105 -131 -134 -339 -5 -37 -12 -78 -15 -91 -8 -31 -46 -40
-76 -19 -18 12 -20 21 -15 66 4 28 9 90 12 139 5 75 4 87 -10 87 -27 0 -96
-72 -172 -182 -114 -163 -154 -250 -194 -417 -19 -82 -15 -271 10 -391 18 -90
68 -239 98 -296 6 -11 24 -48 41 -84 46 -99 160 -270 238 -358 83 -92 148
-253 168 -412 7 -61 7 -664 -1 -1070 -2 -146 -7 -474 -9 -730 -3 -256 -7 -503
-9 -550 -2 -47 -7 -245 -11 -441 l-7 -356 32 -37 c43 -48 86 -70 134 -67 59 3
82 18 124 78 l23 33 -1 487 c-2 560 -2 570 5 918 2 143 7 510 10 815 10 1036
6 1015 241 1371 57 87 104 161 104 164 0 4 34 55 75 115 41 60 75 111 75 114
0 4 16 38 35 76 19 39 34 71 33 73 -1 1 4 18 9 37 24 78 35 179 30 270 -9 180
-21 263 -53 355 -47 138 -55 159 -75 186 -11 15 -25 40 -32 56 -33 74 -141
199 -209 241 l-37 23 -6 -23 c-3 -13 -4 -37 -1 -53 3 -17 9 -57 12 -90 4 -33
8 -63 10 -66 14 -25 13 -78 -2 -93 -17 -17 -53 -13 -66 8 -6 9 -46 171 -63
256 -4 19 -10 40 -14 45 -4 6 -15 36 -26 68 -11 34 -29 67 -43 78 -29 22 -36
23 -49 7z"/>
</g>
</svg>
